<?xml version="1.0" encoding="UTF-8" standalone="no"?>

<svg version="1.1" viewBox="0 0 113.38533 256.25198" xmlns="http://www.w3.org/2000/svg">
  <path fill="#000000" d="m 96.828173,192.73789 h -73.56 v 1.71 h 73.56 z" transform="matrix(1.3333333,0,0,-1.3333333,-15.72023,284.09451)"/>
  <path fill="#000000" d="m 96.828173,189.32789 h -73.56 v 1.71 h 73.56 z" transform="matrix(1.3333333,0,0,-1.3333333,-15.72023,284.09451)"/>
  <path fill="#000000" d="m 96.828173,184.21789 h -65.04 v 3.41 h 65.04 z" transform="matrix(1.3333333,0,0,-1.3333333,-15.72023,284.09451)"/>
  <path fill="#000000" d="m 96.828173,177.39789 h -65.04 v 1.71 h 65.04 z" transform="matrix(1.3333333,0,0,-1.3333333,-15.72023,284.09451)"/>
  <path fill="#000000" d="m 96.828173,173.98789 h -65.04 v 1.71 h 65.04 z" transform="matrix(1.3333333,0,0,-1.3333333,-15.72023,284.09451)"/>
  <path fill="#000000" d="m 96.828173,165.46789 h -65.04 v 3.41 h 65.04 z" transform="matrix(1.3333333,0,0,-1.3333333,-15.72023,284.09451)"/>
  <path fill="#000000" d="m 96.828173,160.35789 h -65.04 v 3.41 h 65.04 z" transform="matrix(1.3333333,0,0,-1.3333333,-15.72023,284.09451)"/>
  <path fill="#000000" d="m 96.828173,153.53789 h -65.04 v 3.41 h 65.04 z" transform="matrix(1.3333333,0,0,-1.3333333,-15.72023,284.09451)"/>
  <path fill="#000000" d="m 96.828173,148.42789 h -65.04 v 3.41 h 65.04 z" transform="matrix(1.3333333,0,0,-1.3333333,-15.72023,284.09451)"/>
  <path fill="#000000" d="m 96.828173,141.60789 h -65.04 v 3.41 h 65.04 z" transform="matrix(1.3333333,0,0,-1.3333333,-15.72023,284.09451)"/>
  <path fill="#000000" d="m 96.828173,136.49789 h -65.04 v 1.7 h 65.04 z" transform="matrix(1.3333333,0,0,-1.3333333,-15.72023,284.09451)"/>
  <path fill="#000000" d="m 96.828173,129.67789 h -65.04 v 5.11 h 65.04 z" transform="matrix(1.3333333,0,0,-1.3333333,-15.72023,284.09451)"/>
  <path fill="#000000" d="m 96.828173,122.85789 h -65.04 v 5.12 h 65.04 z" transform="matrix(1.3333333,0,0,-1.3333333,-15.72023,284.09451)"/>
  <path fill="#000000" d="m 96.828173,117.74789 h -65.04 v 3.41 h 65.04 z" transform="matrix(1.3333333,0,0,-1.3333333,-15.72023,284.09451)"/>
  <path fill="#000000" d="m 96.828173,114.33789 h -73.56 v 1.71 h 73.56 z" transform="matrix(1.3333333,0,0,-1.3333333,-15.72023,284.09451)"/>
  <path fill="#000000" d="m 96.828173,110.92789 h -73.56 v 1.71 h 73.56 z" transform="matrix(1.3333333,0,0,-1.3333333,-15.72023,284.09451)"/>
  <path fill="#000000" d="m 96.828173,107.51789 h -65.04 v 1.71 h 65.04 z" transform="matrix(1.3333333,0,0,-1.3333333,-15.72023,284.09451)"/>
  <path fill="#000000" d="m 96.828173,98.997889 h -65.04 v 5.120001 h 65.04 z" transform="matrix(1.3333333,0,0,-1.3333333,-15.72023,284.09451)"/>
  <path fill="#000000" d="m 96.828173,95.587889 h -65.04 v 1.71 h 65.04 z" transform="matrix(1.3333333,0,0,-1.3333333,-15.72023,284.09451)"/>
  <path fill="#000000" d="m 96.828173,87.067889 h -65.04 v 5.12 h 65.04 z" transform="matrix(1.3333333,0,0,-1.3333333,-15.72023,284.09451)"/>
  <path fill="#000000" d="m 96.828173,83.657889 h -65.04 v 1.71 h 65.04 z" transform="matrix(1.3333333,0,0,-1.3333333,-15.72023,284.09451)"/>
  <path fill="#000000" d="m 96.828173,75.137889 h -65.04 v 5.12 h 65.04 z" transform="matrix(1.3333333,0,0,-1.3333333,-15.72023,284.09451)"/>
  <path fill="#000000" d="m 96.828173,71.727889 h -65.04 v 1.71 h 65.04 z" transform="matrix(1.3333333,0,0,-1.3333333,-15.72023,284.09451)"/>
  <path fill="#000000" d="m 96.828173,64.917889 h -65.04 v 1.7 h 65.04 z" transform="matrix(1.3333333,0,0,-1.3333333,-15.72023,284.09451)"/>
  <path fill="#000000" d="m 96.828173,59.797889 h -65.04 v 1.71 h 65.04 z" transform="matrix(1.3333333,0,0,-1.3333333,-15.72023,284.09451)"/>
  <path fill="#000000" d="m 96.828173,52.987889 h -65.04 v 1.7 h 65.04 z" transform="matrix(1.3333333,0,0,-1.3333333,-15.72023,284.09451)"/>
  <path fill="#000000" d="m 96.828173,47.867889 h -65.04 v 1.71 h 65.04 z" transform="matrix(1.3333333,0,0,-1.3333333,-15.72023,284.09451)"/>
  <path fill="#000000" d="m 96.828173,41.057889 h -65.04 v 1.7 h 65.04 z" transform="matrix(1.3333333,0,0,-1.3333333,-15.72023,284.09451)"/>
  <path fill="#000000" d="m 22.102473,200.51839 c 0.54,0.41 0.9,1 1.07,1.74 l 0.05,0.21 0.09,-0.2 c 0.26,-0.57 0.62,-1 1.06,-1.29 0.45,-0.29 0.94,-0.44 1.48,-0.44 0.57,0 1.12,0.15 1.62,0.46 0.51,0.3 0.92,0.75 1.21,1.33 0.3,0.58 0.45,1.22 0.45,1.91 0,0.99 -0.29,1.84 -0.86,2.5 -0.56,0.66 -1.35,1.09 -2.35,1.28 l -0.25,-1.43 c 0.75,-0.12 1.32,-0.39 1.71,-0.8 0.39,-0.42 0.6,-0.96 0.6,-1.59 0,-0.64 -0.2,-1.17 -0.6,-1.57 -0.39,-0.41 -0.89,-0.61 -1.49,-0.61 -0.76,0 -1.33,0.28 -1.69,0.84 -0.36,0.55 -0.54,1.17 -0.54,1.86 0,0.05 0,0.11 0.01,0.19 l -1.21,0.15 c 0.1,-0.4 0.15,-0.75 0.15,-1.03 0,-0.75 -0.24,-1.37 -0.72,-1.86 -0.49,-0.49 -1.11,-0.73 -1.86,-0.73 -0.77,0 -1.44,0.26 -1.96,0.79 -0.53,0.52 -0.8,1.17 -0.8,1.94 0,0.64 0.21,1.19 0.61,1.64 0.4,0.44 1.04,0.75 1.91,0.94 l -0.19,1.44 c -1.02,-0.12 -1.86,-0.54 -2.5,-1.25 -0.66,-0.73 -0.99,-1.66 -0.99,-2.77 0,-1.22 0.39,-2.25 1.15,-3.06 0.77,-0.8 1.71,-1.2 2.81,-1.2 0.81,0 1.49,0.21 2.03,0.61" transform="matrix(1.3333333,0,0,-1.3333333,-15.72023,284.09451)"/>
  <path fill="#000000" d="m 23.592473,174.46839 c 0.76,0.76 1.14,1.7 1.14,2.8 0,0.83 -0.27,1.63 -0.79,2.39 l -0.11,0.15 3.71,-0.74 v -5.13 h 1.36 v 6.27 l -6.48,1.22 -0.18,-1.36 c 0.36,-0.23 0.66,-0.56 0.89,-0.96 0.23,-0.42 0.35,-0.9 0.35,-1.42 0,-0.84 -0.27,-1.52 -0.8,-2.05 -0.54,-0.51 -1.27,-0.78 -2.19,-0.78 -0.96,0 -1.75,0.28 -2.33,0.81 -0.59,0.54 -0.89,1.21 -0.89,1.99 0,0.65 0.21,1.22 0.63,1.68 0.4,0.44 1.01,0.73 1.8,0.87 l -0.13,1.51 c -1.02,-0.12 -1.86,-0.53 -2.48,-1.24 -0.65,-0.72 -0.97,-1.67 -0.97,-2.82 0,-1.4 0.52,-2.51 1.54,-3.32 0.83,-0.67 1.83,-1 2.97,-1 1.2,0 2.19,0.38 2.96,1.13" transform="matrix(1.3333333,0,0,-1.3333333,-15.72023,284.09451)"/>
  <path fill="#000000" d="m 20.722473,166.31839 v 4.26 l 6.13,-4.26 z m 0,-1.43 h 8.35 v 1.18 l -8.29,5.84 h -1.36 v -5.59 h -3.08 v -1.43 h 3.08 v -1.74 h 1.3 z" transform="matrix(1.3333333,0,0,-1.3333333,-15.72023,284.09451)"/>
  <path fill="#000000" d="m 29.132473,156.42829 c -0.55,0.28 -1.13,0.75 -1.71,1.4 -0.58,0.65 -1.09,1.43 -1.5,2.3 h -1.37 c 0.17,-0.46 0.43,-0.99 0.77,-1.56 0.36,-0.61 0.72,-1.11 1.08,-1.48 l 0.12,-0.13 h -10.18 v -1.43 h 12.79 z" transform="matrix(1.3333333,0,0,-1.3333333,-15.72023,284.09451)"/>
  <path fill="#000000" d="m 29.132473,146.15839 c -0.55,0.28 -1.13,0.75 -1.71,1.4 -0.58,0.65 -1.09,1.43 -1.5,2.29 h -1.37 c 0.17,-0.46 0.43,-0.98 0.77,-1.55 0.36,-0.61 0.72,-1.11 1.08,-1.48 l 0.12,-0.13 h -10.18 v -1.43 h 12.79 z" transform="matrix(1.3333333,0,0,-1.3333333,-15.72023,284.09451)"/>
  <path fill="#000000" d="m 22.752473,134.91829 c -0.53,0.48 -0.8,1.11 -0.8,1.86 0,0.74 0.27,1.38 0.8,1.89 0.52,0.5 1.21,0.76 2.05,0.76 0.93,0 1.7,-0.27 2.28,-0.8 0.59,-0.54 0.89,-1.17 0.89,-1.9 0,-0.69 -0.28,-1.3 -0.83,-1.8 -0.54,-0.49 -1.29,-0.74 -2.21,-0.74 -0.92,0 -1.66,0.24 -2.18,0.73 m 3.82,-1.8 c 0.81,0.35 1.45,0.87 1.89,1.55 0.44,0.68 0.67,1.44 0.67,2.26 0,1.13 -0.4,2.09 -1.18,2.84 -0.77,0.75 -1.82,1.13 -3.1,1.13 -1.24,0 -2.25,-0.36 -3.01,-1.08 -0.75,-0.72 -1.13,-1.61 -1.13,-2.65 0,-0.63 0.15,-1.21 0.46,-1.75 0.3,-0.53 0.71,-0.96 1.2,-1.27 l 0.2,-0.13 -0.24,-0.01 h -0.32 c -0.66,0 -1.31,0.08 -1.95,0.23 -0.64,0.16 -1.15,0.37 -1.53,0.6 -0.38,0.24 -0.69,0.55 -0.92,0.93 -0.22,0.38 -0.34,0.82 -0.34,1.32 0,0.58 0.17,1.07 0.5,1.44 0.32,0.37 0.84,0.62 1.53,0.75 l -0.12,1.38 c -0.96,-0.14 -1.71,-0.51 -2.24,-1.12 -0.55,-0.62 -0.82,-1.43 -0.82,-2.42 0,-0.93 0.25,-1.75 0.75,-2.44 0.5,-0.69 1.24,-1.22 2.19,-1.57 0.96,-0.35 2.28,-0.53 3.91,-0.53 1.56,0 2.77,0.18 3.6,0.54" transform="matrix(1.3333333,0,0,-1.3333333,-15.72023,284.09451)"/>
  <path fill="#000000" d="m 28.912473,131.29829 h -1.37 v -6.41 l -0.13,0.11 c -0.9,0.8 -2.03,1.56 -3.36,2.27 -1.32,0.7 -2.71,1.25 -4.13,1.63 -1.39,0.37 -2.59,0.57 -3.58,0.59 v -1.48 c 1.25,-0.09 2.43,-0.29 3.49,-0.6 1.53,-0.44 3.03,-1.07 4.48,-1.88 1.43,-0.79 2.6,-1.61 3.47,-2.43 h 1.13 z" transform="matrix(1.3333333,0,0,-1.3333333,-15.72023,284.09451)"/>
  <path fill="#000000" d="m 23.592473,95.968389 c 0.76,0.75 1.14,1.7 1.14,2.79 0,0.83 -0.27,1.640001 -0.79,2.400001 l -0.11,0.15 3.71,-0.74 v -5.130001 h 1.36 v 6.270001 l -6.48,1.22 -0.18,-1.36 c 0.36,-0.24 0.66,-0.56 0.89,-0.97 0.23,-0.42 0.35,-0.890001 0.35,-1.410001 0,-0.84 -0.27,-1.53 -0.8,-2.05 -0.54,-0.52 -1.27,-0.78 -2.19,-0.78 -0.96,0 -1.75,0.27 -2.33,0.81 -0.59,0.54 -0.89,1.21 -0.89,1.99 0,0.65 0.21,1.210001 0.63,1.670001 0.4,0.45 1.01,0.74 1.8,0.87 l -0.13,1.52 c -1.02,-0.12 -1.86,-0.54 -2.48,-1.24 -0.65,-0.72 -0.97,-1.67 -0.97,-2.820001 0,-1.4 0.52,-2.52 1.54,-3.33 0.83,-0.66 1.83,-1 2.97,-1 1.2,0 2.19,0.38 2.96,1.14" transform="matrix(1.3333333,0,0,-1.3333333,-15.72023,284.09451)"/>
  <path fill="#000000" d="m 23.592473,86.038289 c 0.76,0.76 1.14,1.7 1.14,2.79 0,0.83 -0.27,1.64 -0.79,2.4 l -0.11,0.15 3.71,-0.74 v -5.13 h 1.36 v 6.27 l -6.48,1.22 -0.18,-1.36 c 0.36,-0.24 0.66,-0.56 0.89,-0.97 0.23,-0.42 0.35,-0.89 0.35,-1.41 0,-0.84 -0.27,-1.53 -0.8,-2.05 -0.54,-0.52 -1.27,-0.78 -2.19,-0.78 -0.96,0 -1.75,0.27 -2.33,0.81 -0.59,0.54 -0.89,1.21 -0.89,1.99 0,0.65 0.21,1.21 0.63,1.67 0.4,0.45 1.01,0.74 1.8,0.87 l -0.13,1.52 c -1.02,-0.12 -1.86,-0.54 -2.48,-1.24 -0.65,-0.72 -0.97,-1.67 -0.97,-2.82 0,-1.4 0.52,-2.52 1.54,-3.33 0.83,-0.66 1.83,-1 2.97,-1 1.2,0 2.19,0.38 2.96,1.14" transform="matrix(1.3333333,0,0,-1.3333333,-15.72023,284.09451)"/>
  <path fill="#000000" d="m 23.592473,75.808389 c 0.76,0.76 1.14,1.7 1.14,2.8 0,0.83 -0.27,1.63 -0.79,2.39 l -0.11,0.15 3.71,-0.74 v -5.13 h 1.36 v 6.27 l -6.48,1.22 -0.18,-1.36 c 0.36,-0.24 0.66,-0.56 0.89,-0.96 0.23,-0.43 0.35,-0.9 0.35,-1.42 0,-0.84 -0.27,-1.53 -0.8,-2.05 -0.54,-0.52 -1.27,-0.78 -2.19,-0.78 -0.96,0 -1.75,0.28 -2.33,0.81 -0.59,0.54 -0.89,1.21 -0.89,1.99 0,0.65 0.21,1.21 0.63,1.67 0.4,0.45 1.01,0.74 1.8,0.87 l -0.13,1.52 c -1.02,-0.12 -1.86,-0.53 -2.48,-1.24 -0.65,-0.72 -0.97,-1.67 -0.97,-2.82 0,-1.4 0.52,-2.52 1.54,-3.32 0.83,-0.67 1.83,-1.01 2.97,-1.01 1.2,0 2.19,0.39 2.96,1.14" transform="matrix(1.3333333,0,0,-1.3333333,-15.72023,284.09451)"/>
  <path fill="#000000" d="m 28.912473,72.458389 h -1.37 v -6.4 l -0.13,0.11 c -0.9,0.79 -2.03,1.55 -3.36,2.26 -1.32,0.7 -2.71,1.25 -4.13,1.63 -1.39,0.37 -2.59,0.57 -3.58,0.59 v -1.48 c 1.25,-0.09 2.43,-0.29 3.49,-0.6 1.53,-0.44 3.03,-1.07 4.48,-1.87 1.43,-0.8 2.6,-1.62 3.47,-2.43 h 1.13 z" transform="matrix(1.3333333,0,0,-1.3333333,-15.72023,284.09451)"/>
  <path fill="#000000" d="m 28.912473,62.228289 h -1.37 v -6.4 l -0.13,0.11 c -0.9,0.79 -2.03,1.55 -3.36,2.26 -1.32,0.71 -2.71,1.26 -4.13,1.63 -1.39,0.37 -2.59,0.57 -3.58,0.6 v -1.48 c 1.25,-0.09 2.43,-0.3 3.49,-0.61 1.53,-0.44 3.03,-1.07 4.48,-1.87 1.43,-0.8 2.6,-1.62 3.47,-2.43 h 1.13 z" transform="matrix(1.3333333,0,0,-1.3333333,-15.72023,284.09451)"/>
  <path fill="#000000" d="m 28.912473,52.848289 h -1.37 v -6.4 l -0.13,0.11 c -0.9,0.79 -2.03,1.56 -3.36,2.26 -1.32,0.71 -2.71,1.26 -4.13,1.64 -1.39,0.36 -2.59,0.56 -3.58,0.59 v -1.48 c 1.25,-0.09 2.43,-0.29 3.49,-0.6 1.53,-0.44 3.03,-1.07 4.48,-1.88 1.43,-0.8 2.6,-1.61 3.47,-2.43 h 1.13 z" transform="matrix(1.3333333,0,0,-1.3333333,-15.72023,284.09451)"/>
  <path fill="#000000" d="m 96.828173,35.937889 h -73.56 v 1.71 h 73.56 z" transform="matrix(1.3333333,0,0,-1.3333333,-15.72023,284.09451)"/>
  <path fill="#000000" d="m 96.828173,32.527889 h -73.56 v 1.71 h 73.56 z" transform="matrix(1.3333333,0,0,-1.3333333,-15.72023,284.09451)"/>
</svg>
