<?xml version="1.0" encoding="UTF-8" standalone="no"?>
<!-- Created with Inkscape (http://www.inkscape.org/) -->

<svg
   width="120"
   height="120"
   viewBox="0 0 120 120"
   version="1.1"
   id="svg5"
   inkscape:version="1.1.2 (0a00cf5339, 2022-02-04)"
   sodipodi:docname="calendar.svg"
   xmlns:inkscape="http://www.inkscape.org/namespaces/inkscape"
   xmlns:sodipodi="http://sodipodi.sourceforge.net/DTD/sodipodi-0.dtd"
   xmlns="http://www.w3.org/2000/svg"
   xmlns:svg="http://www.w3.org/2000/svg">
  <sodipodi:namedview
     id="namedview7"
     pagecolor="#ffffff"
     bordercolor="#666666"
     borderopacity="1.0"
     inkscape:pageshadow="2"
     inkscape:pageopacity="0.0"
     inkscape:pagecheckerboard="0"
     inkscape:document-units="px"
     showgrid="false"
     inkscape:zoom="3.2333333"
     inkscape:cx="53.659794"
     inkscape:cy="64.948454"
     inkscape:window-width="1920"
     inkscape:window-height="1011"
     inkscape:window-x="0"
     inkscape:window-y="0"
     inkscape:window-maximized="1"
     inkscape:current-layer="layer1" />
  <defs
     id="defs2" />
  <g
     inkscape:label="Layer 1"
     inkscape:groupmode="layer"
     id="layer1">
    <path
       id="rect3880"
       style="color:#000000;fill:#000000;-inkscape-stroke:none"
       d="M 40.382812 19.556641 L 40.382812 25.806641 L 32.931641 25.806641 C 27.027398 25.806641 22.150391 30.685601 22.150391 36.589844 L 22.150391 89.054688 C 22.150391 94.95893 27.027398 99.835938 32.931641 99.835938 L 88.984375 99.835938 C 94.888617 99.835938 99.767578 94.95893 99.767578 89.054688 L 99.767578 36.589844 C 99.767578 30.685601 94.888617 25.806641 88.984375 25.806641 L 80.320312 25.806641 L 80.320312 19.556641 L 72.320312 19.556641 L 72.320312 25.806641 L 48.382812 25.806641 L 48.382812 19.556641 L 40.382812 19.556641 z M 32.931641 33.806641 L 40.382812 33.806641 L 40.382812 40.482422 L 48.382812 40.482422 L 48.382812 33.806641 L 72.320312 33.806641 L 72.320312 40.482422 L 80.320312 40.482422 L 80.320312 33.806641 L 88.984375 33.806641 C 90.595 33.806641 91.767578 34.979219 91.767578 36.589844 L 91.767578 45.472656 L 30.150391 45.472656 L 30.150391 36.589844 C 30.150391 34.979219 31.321016 33.806641 32.931641 33.806641 z M 30.150391 53.472656 L 44.988281 53.472656 L 44.988281 68.751953 L 30.150391 68.751953 L 30.150391 53.472656 z M 52.988281 53.472656 L 68.648438 53.472656 L 68.648438 68.751953 L 52.988281 68.751953 L 52.988281 53.472656 z M 76.648438 53.472656 L 91.767578 53.472656 L 91.767578 68.751953 L 76.648438 68.751953 L 76.648438 53.472656 z M 30.150391 76.751953 L 44.988281 76.751953 L 44.988281 91.835938 L 32.931641 91.835938 C 31.321016 91.835938 30.150391 90.665312 30.150391 89.054688 L 30.150391 76.751953 z M 52.988281 76.751953 L 68.648438 76.751953 L 68.648438 91.835938 L 52.988281 91.835938 L 52.988281 76.751953 z M 76.648438 76.751953 L 91.767578 76.751953 L 91.767578 89.054688 C 91.767578 90.665312 90.595 91.835938 88.984375 91.835938 L 76.648438 91.835938 L 76.648438 76.751953 z " />
  </g>
</svg>
