<?xml version="1.0" encoding="UTF-8" standalone="no"?>
<!-- Created with Inkscape (http://www.inkscape.org/) -->

<svg
   width="120"
   height="120"
   viewBox="0 0 31.749999 31.750001"
   version="1.1"
   id="svg5"
   sodipodi:docname="clock.svg"
   inkscape:version="1.1.2 (0a00cf5339, 2022-02-04)"
   xmlns:inkscape="http://www.inkscape.org/namespaces/inkscape"
   xmlns:sodipodi="http://sodipodi.sourceforge.net/DTD/sodipodi-0.dtd"
   xmlns="http://www.w3.org/2000/svg"
   xmlns:svg="http://www.w3.org/2000/svg">
  <sodipodi:namedview
     id="namedview7"
     pagecolor="#ffffff"
     bordercolor="#666666"
     borderopacity="1.0"
     inkscape:pageshadow="2"
     inkscape:pageopacity="0.0"
     inkscape:pagecheckerboard="0"
     inkscape:document-units="mm"
     showgrid="false"
     units="px"
     width="120px"
     inkscape:zoom="4"
     inkscape:cx="56.625"
     inkscape:cy="73.5"
     inkscape:window-width="1920"
     inkscape:window-height="1011"
     inkscape:window-x="0"
     inkscape:window-y="0"
     inkscape:window-maximized="1"
     inkscape:current-layer="layer1" />
  <defs
     id="defs2" />
  <g
     inkscape:label="Layer 1"
     inkscape:groupmode="layer"
     id="layer1">
    <path
       style="color:#000000;fill:#000000;-inkscape-stroke:none"
       d="m 15.875,3.376953 c -6.8901356,0 -12.4980468,5.6079112 -12.4980468,12.498047 0,6.890136 5.6079112,12.498047 12.4980468,12.498047 6.890136,0 12.498047,-5.607911 12.498047,-12.498047 0,-6.8901358 -5.607911,-12.498047 -12.498047,-12.498047 z m 0,2.1152344 c 5.746206,0 10.382813,4.6366076 10.382813,10.3828126 0,5.746205 -4.636607,10.380859 -10.382813,10.380859 -5.746205,0 -10.3808593,-4.634654 -10.3808593,-10.380859 0,-5.746205 4.6346543,-10.3828126 10.3808593,-10.3828126 z"
       id="path4330" />
    <path
       style="color:#000000;fill:#000000;-inkscape-stroke:none"
       d="m 14.367188,8.453125 v 9.248047 l 6.71289,3.902344 1.064453,-1.830079 -5.660156,-3.291015 V 8.453125 Z"
       id="path4467" />
  </g>
</svg>
