<?xml version="1.0" encoding="UTF-8" standalone="no"?>
<!-- Created with Inkscape (http://www.inkscape.org/) -->

<svg
   width="120"
   height="120"
   viewBox="0 0 31.749999 31.750001"
   version="1.1"
   id="svg5"
   sodipodi:docname="phone.svg"
   inkscape:version="1.1.2 (0a00cf5339, 2022-02-04)"
   xmlns:inkscape="http://www.inkscape.org/namespaces/inkscape"
   xmlns:sodipodi="http://sodipodi.sourceforge.net/DTD/sodipodi-0.dtd"
   xmlns="http://www.w3.org/2000/svg"
   xmlns:svg="http://www.w3.org/2000/svg">
  <sodipodi:namedview
     id="namedview7"
     pagecolor="#ffffff"
     bordercolor="#666666"
     borderopacity="1.0"
     inkscape:pageshadow="2"
     inkscape:pageopacity="0.0"
     inkscape:pagecheckerboard="0"
     inkscape:document-units="mm"
     showgrid="false"
     units="px"
     width="120px"
     inkscape:zoom="2"
     inkscape:cx="53.25"
     inkscape:cy="7"
     inkscape:window-width="1920"
     inkscape:window-height="1011"
     inkscape:window-x="0"
     inkscape:window-y="0"
     inkscape:window-maximized="1"
     inkscape:current-layer="layer1" />
  <defs
     id="defs2" />
  <g
     inkscape:label="Layer 1"
     inkscape:groupmode="layer"
     id="layer1">
    <path
       id="path4330"
       style="color:#000000;fill:#000000;stroke-width:1;-inkscape-stroke:none"
       d="m 16.270535,3.4026511 c -0.210968,0 -0.420462,0.00511 -0.628902,0.015502 v 2.1187335 c 0.208065,-0.012356 0.417658,-0.019121 0.628902,-0.019121 5.746206,0 10.382829,4.6366234 10.382829,10.3828284 0,0.197417 -0.0057,0.393428 -0.01654,0.588078 h 2.117699 c 0.0091,-0.195023 0.01394,-0.390848 0.01394,-0.588076 C 28.768481,9.0104604 23.160671,3.4026511 16.270535,3.4026511 Z" />
    <path
       id="path4851"
       style="color:#000000;fill:#000000;stroke-width:1;-inkscape-stroke:none"
       d="m 16.269502,8.380125 c -0.211357,0 -0.420609,0.0088 -0.627869,0.025321 v 2.123384 c 0.205966,-0.02203 0.415341,-0.03359 0.627869,-0.03359 3.110006,0 5.582088,2.422696 5.582088,5.404322 0,0.199095 -0.01106,0.395555 -0.03256,0.589111 h 2.125968 c 0.01551,-0.194327 0.02377,-0.390903 0.02377,-0.589111 0,-4.156818 -3.475761,-7.5194378 -7.699271,-7.5194378 z" />
    <path
       style="color:#000000;fill:#000000;-inkscape-stroke:none"
       d="M 8.2011719,5.5566406 C 6.4715007,5.3724106 5.1422877,6.6272922 4.2558594,7.9863281 3.369431,9.345364 2.7995236,10.939009 3.0351563,12.4375 c 0.8129144,5.169676 5.0182669,8.867687 6.8320312,10.449219 1.8567325,1.618999 4.3820345,3.836184 8.9863285,5.203125 1.30674,0.38795 2.825439,0.246035 4.248046,-0.246094 1.422608,-0.492129 2.789904,-1.361204 3.458985,-2.779297 0.341801,-0.724433 0.279553,-1.512465 0.05078,-2.175781 -0.228771,-0.663317 -0.616219,-1.255649 -1.076172,-1.78711 -0.919904,-1.06292 -2.071849,-1.920898 -3.357422,-2.146484 -1.443684,-0.25333 -2.550817,0.550914 -3.128906,1.130859 -0.289044,0.289973 -0.507915,0.524746 -0.619141,0.609375 -0.111225,0.08463 0.01341,0.02386 0.05078,0.03125 -1.125333,-0.222557 -3.166345,-1.402996 -4.761719,-2.853515 -1.595374,-1.45052 -2.70045,-3.25314 -2.720703,-4.013672 -0.0072,-0.270153 0.27955,-0.798109 0.751953,-1.476562 0.472403,-0.678454 1.188002,-1.583293 0.917969,-2.8183599 C 12.437983,8.5125506 11.731392,7.7750709 10.931641,7.0488281 10.131889,6.3225854 9.2993494,5.6736092 8.2011719,5.5566406 Z M 7.9765625,7.6601562 c 0.1017548,0.010838 0.9208246,0.3989863 1.5332031,0.9550782 0.6123784,0.5560919 1.0779244,1.3458729 1.0898434,1.4003906 0.02413,0.110341 -0.12804,0.500582 -0.585937,1.158203 -0.4578972,0.657621 -1.1637504,1.507062 -1.1308595,2.742188 0.054538,2.048022 1.6113025,3.886138 3.4121095,5.523437 1.800806,1.637299 3.889999,2.990407 5.77539,3.363281 0.640659,0.126704 1.269886,-0.139787 1.640625,-0.421875 0.37074,-0.282088 0.610729,-0.572889 0.837891,-0.800781 0.454325,-0.455784 0.604619,-0.656663 1.263672,-0.541016 0.424707,0.07453 1.469807,0.694421 2.123047,1.449219 0.32662,0.377399 0.568492,0.778762 0.675781,1.089844 0.107289,0.311082 0.08529,0.477723 0.03516,0.583984 -0.30973,0.656463 -1.174553,1.314336 -2.236328,1.681641 -1.061775,0.367305 -2.278854,0.417557 -2.955078,0.216797 C 15.235533,24.807832 13.125165,22.919275 11.257813,21.291016 9.4867514,19.746719 5.7827043,16.292002 5.125,12.109375 5.0291933,11.500099 5.3737991,10.147561 6.0292969,9.1425781 6.6847946,8.1375956 7.5261953,7.6121869 7.9765625,7.6601562 Z"
       id="path6174" />
  </g>
</svg>
