<svg width="200px" height="200px" viewBox="0 0 210 297" xmlns="http://www.w3.org/2000/svg">
    <path
       d="m 219.41415,32.021079 c 0,0 -45.55074,20.216602 -83.05797,46.629037 -27.33044,19.240306 -50.006727,42.350824 -49.543351,60.472034 1.092868,42.98614 81.600811,38.61467 82.693681,38.61467 1.09287,0 -27.68599,-20.03592 -23.31452,-53.91482 4.37147,-33.878914 73.22216,-91.800921 73.22216,-91.800921 z"
       style="clip-rule:evenodd;fill:#d42526;fill-rule:nonzero;stroke-width:2.91431;stroke-linejoin:round;stroke-miterlimit:1.41421"
       id="path2" />
    <path
       d="m 215.40697,34.935394 c 0,0 -45.35548,17.302287 -74.00028,43.714722 -20.87232,19.240306 -38.1921,42.350824 -37.83947,60.472034 0.8335,42.98614 65.46717,38.61467 66.30358,38.61467 0.83349,0 -24.29081,-20.03592 -20.95392,-53.91482 3.3398,-33.878914 66.49009,-88.886606 66.49009,-88.886606 z"
       style="clip-rule:evenodd;display:inline;fill:#f26340;fill-rule:nonzero;stroke-width:2.91431;stroke-linejoin:round;stroke-miterlimit:1.41421"
       id="path6" />
    <path
       d="m 221.96418,32.021079 c 0,0 -58.45824,62.156506 -58.8371,105.643911 -0.26229,29.87173 14.9038,39.34325 14.9038,39.34325 0,0 -9.66095,-14.22477 -8.62928,-39.70754 0.98212,-24.2267 8.30579,-35.40018 16.27936,-51.18411 15.57118,-30.824707 36.28322,-54.095511 36.28322,-54.095511 z"
       style="clip-rule:evenodd;display:inline;fill:#c78987;fill-rule:nonzero;stroke-width:2.91431;stroke-linejoin:round;stroke-miterlimit:1.41421"
       id="path10" />
    <path
       d="m 71.512676,131.10778 c 0,0 -15.664442,-34.607486 -49.179062,-34.607486 -33.517535,0 -56.284162,33.150326 -56.284162,56.281246 0,23.13383 19.852312,47.17693 46.812639,51.18411 20.563405,3.05712 75.407895,0.36429 75.407895,0.36429 0,0 -63.022057,2.18574 -63.022057,-36.06464 0,-43.42329 46.264747,-37.15752 46.264747,-37.15752 z"
       style="clip-rule:evenodd;display:inline;fill:#c78987;fill-rule:nonzero;stroke-width:2.91431;stroke-linejoin:round;stroke-miterlimit:1.41421"
       id="path14" />
    <path
       d="m 69.507627,130.01491 c 0,0 -21.548443,-22.18959 -51.172453,-22.18959 -29.621096,0 -52.46641,18.3631 -52.285722,47.14196 0.12823,20.57215 20.088372,44.86879 43.9128954,48.43591 18.1765816,2.71323 66.6503796,0.32057 66.6503796,0.32057 0,0 -54.10134,1.90305 -55.704213,-32.07494 -2.217794,-47.09825 48.599113,-41.63391 48.599113,-41.63391 z"
       style="clip-rule:evenodd;display:inline;fill:#c9a1a2;fill-rule:nonzero;stroke-width:2.91431;stroke-linejoin:round;stroke-miterlimit:1.41421"
       id="path18" />
    <path
       d="m -8.269606,202.50849 c 0,0 8.38156938,28.41457 48.453398,28.41457 41.164696,0 96.172388,-16.99919 123.494088,-16.99919 51.72909,0 49.17906,6.79909 49.17906,6.79909 0,0 -12.02154,-25.13596 -55.37198,-25.13596 -36.42893,0 -72.129289,17.85018 -120.579772,17.85018 -20.400204,0 -45.174794,-10.92869 -45.174794,-10.92869 z"
       style="clip-rule:evenodd;display:inline;fill:#c78987;fill-rule:nonzero;stroke-width:2.91431;stroke-linejoin:round;stroke-miterlimit:1.41421"
       id="path22" />
    <path
       d="m 58.03397,237.48027 c 0,0 4.648332,19.48803 39.351993,19.48803 35.647897,0 76.340477,-14.19855 100.001797,-14.19855 44.79885,0 49.52878,5.36526 49.52878,5.36526 0,0 -15.82764,-23.40486 -53.36693,-23.40486 -31.54746,0 -47.35762,11.29296 -96.900969,14.93586 -17.622861,1.29395 -38.614671,-2.18574 -38.614671,-2.18574 z"
       style="clip-rule:evenodd;display:inline;fill:#c78987;fill-rule:nonzero;stroke-width:2.91431;stroke-linejoin:round;stroke-miterlimit:1.41421"
       id="path26" />
    <path
       d="m 36.905188,219.2658 c -15.705243,0 -33.9517677,-6.46103 -41.5435577,-9.44238 5.42936843,8.41655 18.0454377,21.09964 44.8221617,21.09964 41.164696,0 101.878618,-17.24108 129.200318,-17.24108 29.21018,0 35.69161,4.35107 42.74426,6.07052 -7.46065,-7.32076 -28.00366,-18.33687 -54.64341,-18.33687 -36.42893,0 -72.129289,17.85017 -120.579772,17.85017 z"
       style="clip-rule:evenodd;display:inline;fill:#c9a1a2;fill-rule:nonzero;stroke-width:2.91431;stroke-linejoin:round;stroke-miterlimit:1.41421"
       id="path30" />
    <path
       d="m 38.968523,220.11387 c -15.705243,0 -33.9517678,-6.46104 -41.5435579,-9.44238 5.4293685,8.41654 18.0454369,21.09964 44.8221619,21.09964 41.164696,0 97.751943,-17.72486 125.073653,-17.72486 33.6341,0 37.76369,4.00718 45.29136,5.94811 -7.45773,-7.32076 -26.42409,-17.73069 -53.06384,-17.73069 -36.42894,0 -72.129294,17.85018 -120.579777,17.85018 z"
       style="clip-rule:evenodd;display:inline;fill:#d7b9b9;fill-rule:nonzero;stroke-width:2.91431;stroke-linejoin:round;stroke-miterlimit:1.41421"
       id="path34" />
    <path
       d="m 65.319757,176.64395 c 0,0 27.321701,6.9215 34.971773,10.2001 7.65008,3.27861 19.30734,7.65008 19.30734,7.65008 0,0 18.21447,-2.91432 34.60749,-2.91432 16.39302,0 33.87891,3.6429 33.87891,3.6429 l 30.96459,-22.58594 c 0,0 -9.47443,7.20127 -65.20779,9.10723 -42.25757,1.4455 -88.522313,-5.10005 -88.522313,-5.10005 z"
       style="clip-rule:evenodd;display:inline;fill:#c78987;fill-rule:nonzero;stroke-width:2.91431;stroke-linejoin:round;stroke-miterlimit:1.41421"
       id="path38" />
    <path
       d="m 96.648641,245.49464 c -13.303847,0.97921 -28.513656,-0.76647 -35.178694,-1.67865 4.476388,5.69166 14.437516,13.15231 35.916016,13.15231 35.647897,0 76.340477,-14.19855 100.001797,-14.19855 21.88359,0 34.19074,1.2823 41.07144,2.59083 -8.24168,-6.67961 -22.77829,-14.80181 -44.90959,-14.80181 -31.54746,0 -47.35762,11.29297 -96.900969,14.93587 z"
       style="clip-rule:evenodd;display:inline;fill:#d7b9b9;fill-rule:nonzero;stroke-width:2.91431;stroke-linejoin:round;stroke-miterlimit:1.41421"
       id="path42" />
    <path
       d="m -6.8124486,196.31558 c 0,0 -34.1207974,-14.89215 -25.1359654,-57.92201 5.100051,-24.40739 32.2410649,-35.88396 57.924921,-31.32888 23.632179,4.19078 44.079012,22.95022 44.079012,22.95022 0,0 -22.221651,-6.5572 -41.164697,-2.18573 -25.3720246,5.85486 -29.87172667,25.13596 -29.87172667,25.13596 0,0 1.09286805,-17.48589 13.11441667,-25.50025 11.14434,-7.42859 16.028731,-6.9215 16.028731,-6.9215 0,0 -42.989057,4.73576 -40.803321,38.97896 0.883037,13.82551 8.5855712,25.54688 21.8602751,33.15033 19.5987669,11.23177 57.9220069,11.65726 57.9220069,11.65726 0,0 -82.332308,4.68622 -84.882333,-48.81477 -1.457157,-30.60031 17.48880303,-35.70036 17.48880303,-35.70036 0,0 -28.35045403,7.42276 -28.05319403,30.9646 0.364289,28.77886 21.4930714,45.53617 21.4930714,45.53617 z"
       style="clip-rule:evenodd;display:inline;fill:#d7b9b9;fill-rule:nonzero;stroke-width:2.91431;stroke-linejoin:round;stroke-miterlimit:1.41421"
       id="path46" />
    <path
       d="m 44.138517,222.26463 c 48.438826,1.04042 84.515133,-16.07827 120.935323,-15.25935 26.77381,0.60327 47.1303,13.25431 47.5383,13.35339 -7.0439,-8.37865 -28.48743,-18.94304 -55.12718,-18.94304 -36.42893,0 -72.129289,17.85017 -120.579772,17.85017 -8.655515,0 -18.074581,-1.96424 -26.065632,-4.22284 8.979004,3.22032 21.778675,6.97396 33.298961,7.22167 z"
       style="clip-rule:evenodd;display:inline;fill:#c9a1a2;fill-rule:nonzero;stroke-width:2.91431;stroke-linejoin:round;stroke-miterlimit:1.41421"
       id="path50" />
</svg>
