<?xml version="1.0" encoding="utf-8"?>
<!-- Generator: Adobe Illustrator 26.0.3, SVG Export Plug-In . SVG Version: 6.00 Build 0)  -->
<svg version="1.1" id="Слой_1" xmlns="http://www.w3.org/2000/svg" xmlns:xlink="http://www.w3.org/1999/xlink" x="0px" y="0px"
	 viewBox="0 0 351.4891357 70.8661423" style="enable-background:new 0 0 351.4891357 70.8661423;" xml:space="preserve">
<style type="text/css">
	.st0{fill:url(#SVGID_1_);}
</style>
<g>
	<linearGradient id="SVGID_1_" gradientUnits="userSpaceOnUse" x1="0" y1="35.4330711" x2="351.4891357" y2="35.4330711">
		<stop  offset="1.065558e-08" style="stop-color:#12544F"/>
		<stop  offset="0.33" style="stop-color:#157C74"/>
		<stop  offset="0.66" style="stop-color:#1CA89F"/>
		<stop  offset="1" style="stop-color:#63BBB5"/>
	</linearGradient>
	<path class="st0" d="M248.1030121,0v61.8701096c0,4.9683685-4.0276642,8.9960327-8.9960327,8.9960327H223.361496
		c-4.9683838,0-8.996048-4.0276642-8.996048-8.9960327V0h9.8439178v61.0367203c0,0.9238853,0.7489624,1.6728401,1.6728363,1.6728401
		h9.8557892c0.9241791,0,1.6733704-0.7491951,1.6733704-1.6733704V0H248.1030121z M301.6847839,70.8661423h-11.0950012
		l-0.20578-0.551445l-2.8560181-7.6051369l-5.3088074-14.1485443l-2.460968-6.5516396h-5.3581543v28.8567657h-10.6505127V0
		h25.4739685c4.5680237,0,8.2718201,3.7038064,8.2718201,8.2718239v25.5068703
		c-0.0247192,4.2799644-3.3005066,7.7944832-7.48172,8.1977768l0.3703918,0.9135933l2.288147,5.6709518l5.7203369,14.1485443
		l3.2346497,8.0084343L301.6847839,70.8661423z M287.6184998,9.1772289c0-0.9218826-0.7489624-1.6708522-1.6708374-1.6708522
		h-11.5476074v26.2723179h11.5476074c0.921875,0,1.6708374-0.7489662,1.6708374-1.6707993V9.1772289z M351.4891357,70.8661423
		H340.394165l-0.20578-0.551445l-2.8560181-7.6051369l-5.3088074-14.1485443l-2.460968-6.5516396h-5.3581848v28.8567657h-10.6504822
		V0h25.4739685c4.5679932,0,8.2718201,3.7038064,8.2718201,8.2718239v25.5068703
		c-0.0247192,4.2799644-3.3005066,7.7944832-7.48172,8.1977768l0.3703918,0.9135933l2.288147,5.6709518l5.7203369,14.1485443
		l3.2346497,8.0084343L351.4891357,70.8661423z M337.4228821,9.1772289c0-0.9218826-0.7489624-1.6708522-1.6708374-1.6708522
		h-11.5476379v26.2723179h11.5476379c0.921875,0,1.6708374-0.7489662,1.6708374-1.6707993V9.1772289z M191.2940063,0h-16.4104614
		c-4.5691376,0-8.2731628,3.7040069-8.2731934,8.2731485l-0.0003052,54.3197517
		c-0.0000305,4.5691795,3.70401,8.273243,8.2731934,8.273243h16.4102783c4.5691528,0,8.2731934-3.7040329,8.2731934-8.2731972
		v-14.031929h-10.0509033l0.0009003,12.4755821c0.0000763,0.9239311-0.7489014,1.6729622-1.6728363,1.6729622h-9.6845856
		c-0.9238892,0-1.6728516-0.7489624-1.6728363-1.6728516l0.000351-51.8575058c0-0.9238787,0.7489624-1.6728263,1.6728363-1.6728263
		h9.6843567c0.9238892,0,1.6728363,0.7489552,1.6728363,1.6728377v13.0930061h10.049881V8.272706
		C199.5667114,3.7038164,195.8628845,0,191.2940063,0z M105.7029572,0.371684H0v4.2598152h105.7029572V0.371684z
		 M105.7029572,33.3039513H0v4.2598152h105.7029572V33.3039513z M105.7029572,66.234642H0v4.259819h105.7029572V66.234642z
		 M152.1651611,62.7095604l-5.9672394-14.1485443l-2.757309-6.5516396l-3.1523132-7.473423l0.3127594-0.7572594l4.691452-11.5064735
		l6.0248718-14.7658443l1.1358337-2.773735L154.3874512,0H143.029068l-1.4650269,4.7326417l-0.8559723,2.773735
		l-4.5680695,14.7658443l-1.1687469,3.7779045l-0.0328979,0.1234303l-0.0411987-0.1234303l-1.1687469-3.7779045
		l-4.5680084-14.7658443l-0.8559723-2.773735L126.8393402,0h-11.3583298l1.9341888,4.7326417l1.1358414,2.773735
		l6.0248642,14.7658443l4.6914902,11.5064735l0.3127747,0.7572594l-3.1523666,7.473423l-2.7572556,6.5516396l-5.967247,14.1485443
		l-3.4363174,8.1565819h11.2060852l2.8724976-8.1565819l4.9960327-14.1485443l1.5555573-4.4198723l0.0411987-0.1070023
		l0.0328979,0.1070023l1.5556183,4.4198723l4.9960175,14.1485443l2.8725128,8.1565819h11.2017517L152.1651611,62.7095604z"/>
</g>
</svg>
